<?xml version="1.0" standalone="no"?>
<!DOCTYPE svg PUBLIC "-//W3C//DTD SVG 20010904//EN"
 "http://www.w3.org/TR/2001/REC-SVG-20010904/DTD/svg10.dtd">
<svg version="1.0" xmlns="http://www.w3.org/2000/svg"
 width="1254.000000pt" height="1240.000000pt" viewBox="0 0 1254.000000 1240.000000"
 preserveAspectRatio="xMidYMid meet">

<g transform="translate(0.000000,1240.000000) scale(0.100000,-0.100000)"
fill="#000000" stroke="none">
<path d="M3590 9263 c-60 -7 -203 -45 -257 -68 -199 -88 -331 -275 -387 -548
-23 -108 -38 -361 -31 -492 35 -618 265 -1173 752 -1816 225 -298 314 -394
1123 -1218 722 -736 1031 -1007 1278 -1124 65 -31 71 -32 202 -32 131 0 137 1
202 32 247 117 556 388 1278 1124 809 824 898 920 1123 1218 487 643 717 1198
752 1816 7 131 -8 384 -31 492 -56 273 -189 460 -387 548 -248 109 -582 95
-987 -41 -532 -180 -892 -386 -1290 -741 -330 -294 -450 -457 -571 -770 -23
-62 -53 -125 -66 -140 l-23 -28 -23 28 c-13 15 -43 78 -66 140 -121 313 -241
476 -571 770 -398 355 -758 561 -1290 741 -277 93 -529 131 -730 109z"/>
</g>
</svg>
